# xmcd
#
# Track frame offsets: 
#        150
#        7607
#        21825
#        35960
#        52760
#        68320
#        80957
#        97535
#        104245
#        118760
#        134545
#        139462
#        148345
#        159822
#        175834
#
# Disc length: 2575 seconds
#
# Revision: 5
# Processed by: cddbd v1.5.2PL0 Copyright (c) Steve Scherf et al.
# Submitted via: ExactAudioCopyFreeDBPlugin 1.0
#
DISCID=c90a0d0f
DTITLE=Lightnin' Hopkins - Country Blues [RM 1996]
DYEAR=1959
DGENRE=Blues
TTITLE0=Long Time
TTITLE1=Rainy Day Blues
TTITLE2=Baby!
TTITLE3=Long Gone Like a Turkey Through the Corn
TTITLE4=Prison Blues Come Down on Me
TTITLE5=Backwater Blues (This Mean Old Twister)
TTITLE6=Gonna Pull a Party
TTITLE7=Bluebird, Bluebird
TTITLE8=See See Rider
TTITLE9=Worrying My Mind
TTITLE10=Till the Gin Gets Here
TTITLE11=Bunion Stew
TTITLE12=You Got to Work to Get Your Pay
TTITLE13=Go Down Old Hannah
TTITLE14=Hear My Black Dog Bark
EXTD=
EXTT0=
EXTT1=
EXTT2=
EXTT3=
EXTT4=
EXTT5=
EXTT6=
EXTT7=
EXTT8=
EXTT9=
EXTT10=
EXTT11=
EXTT12=
EXTT13=
EXTT14=
PLAYORDER=
